<svg xmlns="http://www.w3.org/2000/svg"  viewBox="0 0 64 64" width="64px" height="64px"><linearGradient id="RZHL09t15jDKa5nRZInuPa" x1="36.063" x2="36.063" y1="18.336" y2="72.348" gradientUnits="userSpaceOnUse" spreadMethod="reflect"><stop offset="0" stop-color="#1a6dff"/><stop offset="1" stop-color="#c822ff"/></linearGradient><path fill="url(#RZHL09t15jDKa5nRZInuPa)" d="M37.112,30.024C36.725,30.516,35.655,31.413,35,31.5c0.666,0.084,1.684,0.806,2.125,1.5 C36.967,32.393,36.977,30.633,37.112,30.024z"/><linearGradient id="RZHL09t15jDKa5nRZInuPb" x1="30.625" x2="30.625" y1="26.012" y2="29.35" gradientUnits="userSpaceOnUse" spreadMethod="reflect"><stop offset="0" stop-color="#6dc7ff"/><stop offset="1" stop-color="#e6abff"/></linearGradient><path fill="url(#RZHL09t15jDKa5nRZInuPb)" d="M31.454,26.001c1.004,0,1.796,0.817,1.796,1.749c0,0.93-0.79,1.749-1.796,1.749H28V26h3.454 V26.001z"/><linearGradient id="RZHL09t15jDKa5nRZInuPc" x1="30.625" x2="30.625" y1="33.695" y2="36.794" gradientUnits="userSpaceOnUse" spreadMethod="reflect"><stop offset="0" stop-color="#6dc7ff"/><stop offset="1" stop-color="#e6abff"/></linearGradient><path fill="url(#RZHL09t15jDKa5nRZInuPc)" d="M31.453,33.5c1.007,0,1.797,0.817,1.797,1.752c0,0.931-0.79,1.748-1.797,1.748H28v-3.5H31.453 z"/><linearGradient id="RZHL09t15jDKa5nRZInuPd" x1="48.5" x2="48.5" y1="29.078" y2="33.844" gradientUnits="userSpaceOnUse" spreadMethod="reflect"><stop offset="0" stop-color="#6dc7ff"/><stop offset="1" stop-color="#e6abff"/></linearGradient><path fill="url(#RZHL09t15jDKa5nRZInuPd)" d="M48.501,34C49.884,34,51,32.881,51,31.501C51,30.119,49.882,29,48.501,29 C47.12,29,46,30.119,46,31.501C46,32.881,47.12,34,48.501,34"/><linearGradient id="RZHL09t15jDKa5nRZInuPe" x1="48.5" x2="48.5" y1="18.375" y2="44.644" gradientUnits="userSpaceOnUse" spreadMethod="reflect"><stop offset="0" stop-color="#1a6dff"/><stop offset="1" stop-color="#c822ff"/></linearGradient><path fill="url(#RZHL09t15jDKa5nRZInuPe)" d="M48.5,25c-3.584,0-6.5,2.916-6.5,6.5s2.916,6.5,6.5,6.5s6.5-2.916,6.5-6.5S52.084,25,48.5,25z M48.5,36c-2.481,0-4.5-2.019-4.5-4.5s2.019-4.5,4.5-4.5s4.5,2.019,4.5,4.5S50.981,36,48.5,36z"/><linearGradient id="RZHL09t15jDKa5nRZInuPf" x1="32" x2="32" y1="18.375" y2="44.644" gradientUnits="userSpaceOnUse" spreadMethod="reflect"><stop offset="0" stop-color="#1a6dff"/><stop offset="1" stop-color="#c822ff"/></linearGradient><path fill="url(#RZHL09t15jDKa5nRZInuPf)" d="M48.5,18c-3.663,0-7.094,1.451-9.622,4.028C37.892,20.404,35.791,18,32,18h-9h-1H2v27h20h1h9 c2.899,0,5.514-1.549,6.922-3.983C41.446,43.565,44.857,45,48.5,45C55.944,45,62,38.944,62,31.5S55.944,18,48.5,18z M21,43h-7v-8h-3 v8H4V20h7v8h3v-8h7V43z M48.5,43c-3.562,0-6.866-1.611-9.063-4.421l-1.152-1.472l-0.585,1.774C36.886,41.345,34.596,43,32,43h-9V20 h9c4.168,0,5.645,3.972,5.704,4.138l0.605,1.723l1.126-1.438C41.634,21.611,44.938,20,48.5,20C54.841,20,60,25.159,60,31.5 S54.841,43,48.5,43z"/></svg>