<?xml version="1.0" encoding="UTF-8"?>
<svg viewBox="0 0 1057.9 387.51" xmlns="http://www.w3.org/2000/svg">
<defs>
<style>.cls-1{fill:#21d3a3;}</style>
</defs>
<g data-name="Capa 2">
<g data-name="Layer 1">
<path class="cls-1" d="M50.48,16.58C63.16,4.05,81.67-.39,99,0q33.69,0,67.37,0,0,24.59,0,49.16H105c-3.62-.09-7.63,1-9.75,4.14-2.07,2.81-2.18,6.43-2.16,9.78.11,16.88-.1,33.77.11,50.65,20.1-.16,40.21,0,60.32-.07.13,16.32-.2,32.64.17,49-20.18.51-40.39.06-60.57.23q0,108.69,0,217.4-29.74,0-59.49,0,0-87.57,0-175.15c-.13-14.12.26-28.26-.19-42.37-11.11.27-22.24,0-33.35.14C0,146.51,0,130.11,0,113.72c11.19,0,22.39,0,33.58,0,0-18.21,0-36.41,0-54.61C33.89,43.56,39.11,27.54,50.48,16.58Z"/>
<path class="cls-1" d="M192.17.05c19.85,0,39.7-.14,59.54.08q-.18,157.5-.06,315c0,2.84.2,6,2.16,8.23,1.75,2,4.55,2.48,7.07,2.56,12.62.17,25.24-.15,37.85.15-.09,18-.13,36,0,54.05-14.26.38-28.53.06-42.79.17-11.9-.2-24.31,1.12-35.6-3.5-10.05-3.78-17.89-12.15-22-22-4.73-10.92-6.07-22.95-6.25-34.74Q192,160.08,192.17.05Z"/>
<path class="cls-1" d="m444.57 95.93a146.31 146.31 0 0 1 154 96.29c12.62 35.38 11.08 75.66-4.62 109.83a146.86 146.86 0 0 1-255.75 19.83 144.83 144.83 0 0 1-23.56-93.75 146.67 146.67 0 0 1 129.93-132.2zm4.87 57.82a89.19 89.19 0 0 0-77.14 80.3 85.65 85.65 0 0 0 11.52 51.28c16.18 28.08 48.63 46.15 81.18 44.09a88.29 88.29 0 0 0 39-164.49 86.51 86.51 0 0 0-54.56-11.18z"/>
<path class="cls-1" d="m617.16 103.52c21.56-0.36 43.14 0 64.71-0.17q30.9 111.39 61.65 222.81l1.46 2c13.16-44.52 25.56-89.29 38.42-133.92q12.95-45.4 25.9-90.81h61.61c22.33 74.85 44.43 149.77 66.88 224.58 1.94-0.78 1.79-3.22 2.44-4.88q29-109.86 58.17-219.68c19.85-0.06 39.69 0 59.53 0q-37.14 127.86-74.38 255.69c-2.15 7.1-4 14.29-6.34 21.33q-41.72-0.22-83.43 0c-17.86-64.43-34.89-129.1-52.6-193.57l-1.2-2c-3.18 8.29-5.06 17-7.72 25.49q-24.59 85-49.15 170c-27.74-0.08-55.48 0.09-83.21-0.08-27.75-92.23-54.9-184.64-82.74-276.79z"/>
<path class="cls-1" d="m434.33 201.67c1.75-1.49 4.19-0.9 6 0.21q28.35 16.2 56.7 32.37c2.05 1.22 4.3 2.16 6.08 3.78 2.22 2.56 0.87 6.7-2.09 8q-29 16.56-57.92 33.11c-2.19 1.13-4.43 3.1-7.06 2.36a4.9 4.9 0 0 1-3.7-5.41q0.07-34.52 0-69c-0.09-1.97 0.29-4.18 1.99-5.42z"/>
</g>
</g>
</svg>
